# xmcd
#
# Track frame offsets:
# 150
# 15476
# 33264
# 53978
# 71038
# 86289
# 102183
# 127711
# 148955
# 168108
# 181543
# 195598
# 210210
# 232671
# 245091
# 266702
# 285438
#
# Disc length: 4043 seconds
#
#
# Revision: 0
# Processed by: cddbd v1.5.2PL0 Copyright (c) Steve Scherf et al.
# Submitted via: FreeRIP 2.944 
#
DISCID=d60fc911
DTITLE=Mammouth King Blues Band - Mammouth King Blues Band
DYEAR=2006
DGENRE=Blues
TTITLE0=High fever blues
TTITLE1=Sloppy Drunk Blues
TTITLE2=Blues de l'hiver
TTITLE3=Who's been talking
TTITLE4=Come on in
TTITLE5=The blues ain't nothing
TTITLE6=Why don't you do right
TTITLE7=I Ain't Gonna Let Nobody Steal My Jellyroll
TTITLE8=Built for confort
TTITLE9=Me and my chauffeur
TTITLE10=So far so good
TTITLE11=That Bonus Done Gone Through
TTITLE12=Let me play with your poodle
TTITLE13=I Can't Be Satisfied
TTITLE14=Prison bound
TTITLE15=Feeling low down
TTITLE16=Bound To Love Me Some
EXTD=Mammouth King Blues Band\ncontact (33) (0)5 62 65 79 10
EXTT0=Bukka White
EXTT1=Jimmy Rogers
EXTT2=JL Ribes - O Spénale
EXTT3=Chester Burnett
EXTT4=Robert Brown
EXTT5=Georgia White - Mr Williams
EXTT6=Joe McCoy
EXTT7=Taj Mahal
EXTT8=Willie Dixon
EXTT9=M Douglas - McCoy
EXTT10=Tampa Red
EXTT11=Lil Johnson
EXTT12=Tampa Red
EXTT13=McKinley Morganfield
EXTT14=Robert Nighthawk
EXTT15=Big Bill Broonzy
EXTT16=Taj Mahal
PLAYORDER=
